# xmcd
#
# Track frame offsets:
#	150
#	30434
#	51479
#	77268
#	100898
#	129752
#	152927
#	180309
#	214336
#	245318
#	271450
#
# Disc length: 3966 seconds
#
# Revision: 0
# Processed by: cddbd v1.5.2PL0 Copyright (c) Steve Scherf et al.
# Submitted via: dBpowerAMP V4.0
#
DISCID=880f7c0b
DTITLE=Phil Collins - Both Sides
DYEAR=1900
DGENRE=
TTITLE0=01 Both Sides Of The Story
TTITLE1=02 Can't Turn Back The Years
TTITLE2=03 Everyday
TTITLE3=04 I've Forgotten Everything
TTITLE4=05 We're Sons Of Our Fathers
TTITLE5=06 Cab't Find My Way
TTITLE6=07 Survivors
TTITLE7=08 We Fly So Close
TTITLE8=09 There's A Place For Us
TTITLE9=10 We Wait And We Wonder
TTITLE10=11 Please Come Out Tonight
EXTD=
EXTT0=
EXTT1=
EXTT2=
EXTT3=
EXTT4=
EXTT5=
EXTT6=
EXTT7=
EXTT8=
EXTT9=
EXTT10=
PLAYORDER=
